<svg xmlns="http://www.w3.org/2000/svg" viewBox="0 0 512 512" width="512" height="512">
  <!-- Background -->
  <rect width="512" height="512" rx="96" fill="#0f172a"/>

  <!-- Q letter -->
  <g fill="#8b5cf6" transform="translate(52, 150)">
    <!-- Q outer -->
    <path d="M68,0 C105,0 136,14 136,14 L136,14 C136,14 150,30 150,68 L150,100 C150,138 136,154 136,154 C136,154 120,168 82,168 L68,168 C30,168 14,154 14,154 C14,154 0,138 0,100 L0,68 C0,30 14,14 14,14 C14,14 30,0 68,0 Z M68,36 C48,36 40,42 40,42 C40,42 36,48 36,68 L36,100 C36,120 40,126 40,126 C40,126 48,132 68,132 L82,132 C102,132 108,126 108,126 C108,126 114,120 114,100 L114,68 C114,48 108,42 108,42 C108,42 102,36 82,36 Z"/>
    <!-- Q tail -->
    <rect x="95" y="140" width="36" height="60" rx="4" transform="rotate(-35, 113, 170)"/>
  </g>

  <!-- S letter -->
  <g fill="#8b5cf6" transform="translate(190, 150)">
    <path d="M110,36 L110,36 C100,24 80,16 60,16 C40,16 28,24 28,40 C28,56 40,62 70,70 C100,78 130,90 130,126 C130,160 104,172 66,172 C40,172 16,162 0,146 L16,116 C28,130 48,140 66,140 C88,140 96,132 96,122 C96,108 82,102 54,94 C26,86 0,72 0,42 C0,10 26,-4 62,-4 C86,-4 106,4 122,16 Z"/>
  </g>

  <!-- O letter -->
  <g fill="#8b5cf6" transform="translate(320, 150)">
    <path d="M68,0 C105,0 136,14 136,14 L136,14 C136,14 150,30 150,68 L150,100 C150,138 136,154 136,154 C136,154 120,168 82,168 L68,168 C30,168 14,154 14,154 C14,154 0,138 0,100 L0,68 C0,30 14,14 14,14 C14,14 30,0 68,0 Z M68,36 C48,36 40,42 40,42 C40,42 36,48 36,68 L36,100 C36,120 40,126 40,126 C40,126 48,132 68,132 L82,132 C102,132 108,126 108,126 C108,126 114,120 114,100 L114,68 C114,48 108,42 108,42 C108,42 102,36 82,36 Z"/>
  </g>
</svg>
